<svg width="429" height="112" viewBox="0 0 429 112" fill="none" xmlns="http://www.w3.org/2000/svg">
<path d="M67.7471 110H54.6538V74.7749C54.6538 69.0308 52.6265 64.1313 48.5718 60.0767C44.5171 56.022 39.6177 53.9946 33.8735 53.9946C28.1294 53.9946 23.23 56.022 19.1753 60.0767C15.1206 64.1313 13.0933 69.0308 13.0933 74.7749V110H0V74.7749C0 65.3703 3.32259 57.3735 9.96777 50.7847C16.5566 44.1395 24.5252 40.8169 33.8735 40.8169C43.2218 40.8169 51.2186 44.1395 57.8638 50.7847C64.4526 57.3735 67.7471 65.3703 67.7471 74.7749V110Z" fill="black"/>
<path d="M84.0604 82.3774C85.0741 85.9816 86.9325 89.1353 89.6356 91.8384C93.9719 96.1746 99.181 98.3428 105.263 98.3428C111.401 98.3428 116.639 96.1746 120.975 91.8384C121.594 91.2189 122.214 90.515 122.833 89.7266H137.87C136.067 94.0628 133.533 97.8641 130.267 101.13C123.34 108.001 115.006 111.436 105.263 111.436C95.5769 111.436 87.2704 108.001 80.3436 101.13C73.4732 94.2599 70.038 85.9535 70.038 76.2109C70.038 66.4684 73.4732 58.1619 80.3436 51.2915C87.2704 44.4211 95.5769 40.9858 105.263 40.9858C115.006 40.9858 123.34 44.4211 130.267 51.2915C137.137 58.1619 140.573 66.4684 140.573 76.2109C140.573 78.2946 140.376 80.3501 139.981 82.3774H84.0604ZM126.804 70.8047C125.79 66.8626 123.847 63.4556 120.975 60.5835C116.639 56.2472 111.401 54.0791 105.263 54.0791C99.181 54.0791 93.9719 56.2472 89.6356 60.5835C86.7636 63.4556 84.8207 66.8626 83.807 70.8047H126.804Z" fill="black"/>
<path d="M195.912 42.2529H209.006V77.478C209.006 86.8263 205.711 94.8231 199.122 101.468C192.477 108.057 184.48 111.352 175.132 111.352C165.784 111.352 157.787 108.057 151.142 101.468C144.553 94.8231 141.259 86.8263 141.259 77.478V42.2529H154.352V77.478C154.352 83.2222 156.379 88.1216 160.434 92.1763C164.489 96.231 169.388 98.2583 175.132 98.2583C180.876 98.2583 185.776 96.231 189.83 92.1763C193.885 88.1216 195.912 83.2222 195.912 77.478V42.2529Z" fill="black"/>
<path d="M266.119 85.0806H279.973C278.509 91.2189 275.411 96.6533 270.681 101.384C263.754 108.254 255.419 111.689 245.677 111.689C235.991 111.689 227.684 108.254 220.757 101.384C213.887 94.5133 210.452 86.2069 210.452 76.4644C210.452 66.7218 213.887 58.4154 220.757 51.5449C227.684 44.6745 235.991 41.2393 245.677 41.2393C255.419 41.2393 263.754 44.6745 270.681 51.5449C275.186 56.0501 278.227 61.203 279.804 67.0034H265.781C264.711 64.7508 263.247 62.6953 261.389 60.8369C257.053 56.5007 251.815 54.3325 245.677 54.3325C239.595 54.3325 234.386 56.5007 230.049 60.8369C225.713 65.1169 223.545 70.326 223.545 76.4644C223.545 82.6027 225.713 87.8119 230.049 92.0918C234.386 96.4281 239.595 98.5962 245.677 98.5962C251.815 98.5962 257.053 96.4281 261.389 92.0918C263.472 90.0081 265.049 87.6711 266.119 85.0806Z" fill="black"/>
<path d="M282.939 0H289.486H296.033V110H282.939V0Z" fill="black"/>
<path d="M314.542 82.3774C315.556 85.9816 317.414 89.1353 320.118 91.8384C324.454 96.1746 329.663 98.3428 335.745 98.3428C341.883 98.3428 347.121 96.1746 351.457 91.8384C352.076 91.2189 352.696 90.515 353.315 89.7266H368.351C366.549 94.0628 364.015 97.8641 360.749 101.13C353.822 108.001 345.488 111.436 335.745 111.436C326.059 111.436 317.752 108.001 310.826 101.13C303.955 94.2599 300.52 85.9535 300.52 76.2109C300.52 66.4684 303.955 58.1619 310.826 51.2915C317.752 44.4211 326.059 40.9858 335.745 40.9858C345.488 40.9858 353.822 44.4211 360.749 51.2915C367.619 58.1619 371.055 66.4684 371.055 76.2109C371.055 78.2946 370.857 80.3501 370.463 82.3774H314.542ZM357.286 70.8047C356.272 66.8626 354.329 63.4556 351.457 60.5835C347.121 56.2472 341.883 54.0791 335.745 54.0791C329.663 54.0791 324.454 56.2472 320.118 60.5835C317.245 63.4556 315.303 66.8626 314.289 70.8047H357.286Z" fill="black"/>
<path d="M373.43 68.6084C373.43 61.0059 376.105 54.5015 381.455 49.0952C386.861 43.7453 393.365 41.0703 400.968 41.0703C408.571 41.0703 415.047 43.7734 420.397 49.1797C425.803 54.5296 428.506 61.0059 428.506 68.6084V76.2109H415.413V68.6084C415.413 64.61 414.005 61.203 411.189 58.3872C408.373 55.5715 404.966 54.1636 400.968 54.1636C396.97 54.1636 393.563 55.5715 390.747 58.3872C387.931 61.203 386.523 64.61 386.523 68.6084V110H373.43V68.6084Z" fill="black"/>
</svg>
