<svg width="162" height="172" viewBox="0 0 162 172" fill="none" xmlns="http://www.w3.org/2000/svg">
<path d="M66.2587 37.7643C70.4796 37.7643 74.7005 37.7643 79.0493 37.7643C79.0493 44.6583 79.0493 51.5523 79.0493 58.6553C80.5993 57.6774 82.1486 56.6996 83.7458 55.692C88.1833 52.9207 92.7024 50.4435 97.4357 48.2098C98.2087 49.3098 98.973 50.4154 99.734 51.5242C100.161 52.1397 100.587 52.7544 101.027 53.3883C102.232 55.4413 102.232 55.4413 103.831 60.2623C95.5211 65.035 95.5211 65.035 87.0434 69.9042C87.0434 70.4345 87.0434 70.9648 87.0434 71.5112C92.5833 74.6931 98.1232 77.8749 103.831 81.1532C102.61 84.834 101.828 86.8725 99.734 89.8912C99.3031 90.5187 98.8723 91.1463 98.4286 91.7931C98.1008 92.2591 97.7731 92.7252 97.4357 93.2056C96.0168 92.5259 94.6018 91.8381 93.1892 91.1471C92.4002 90.7646 91.612 90.3822 90.7998 89.9884C86.7588 87.7965 82.9232 85.2382 79.0493 82.7602C79.0493 89.9193 79.0493 97.0785 79.0493 104.455C74.8284 104.455 70.6075 104.455 66.2587 104.455C66.2587 97.0303 66.2587 89.606 66.2587 81.9567C56.7617 87.5249 56.7617 87.5249 47.0728 93.2056C44.9711 91.0932 43.613 89.2966 42.0765 86.7777C41.644 86.0818 41.2107 85.3852 40.7646 84.6685C39.0797 80.7514 38.2801 81.5549 40.6775 80.3497C42.1372 79.265 42.1372 79.265 44.0222 78.181C44.6978 77.7897 45.3733 77.3992 46.0687 76.9959C46.7794 76.5949 47.4901 76.1932 48.2224 75.7794C48.929 75.3688 49.6365 74.9582 50.3656 74.5356C55.6401 71.5112 56.0398 70.7077 57.8649 70.7077C57.8649 70.1774 57.8649 71.2541 57.8649 70.7077C57.3508 70.5277 56.4371 69.5435 55.9071 69.3578C53.0684 67.8955 49.535 66.0515 46.4237 64.1793C45.7929 63.8033 45.163 63.4272 44.5139 63.0399C42.967 62.1167 41.4218 61.1903 39.8781 60.2623C40.9757 57.2901 42.3275 54.6771 43.9751 51.9766C44.406 51.2663 44.8368 50.5568 45.2805 49.8264C45.6083 49.2929 45.936 48.7594 46.2734 48.2098C53.2363 51.4873 59.6987 55.4429 66.2587 59.4588C66.2587 52.2996 66.2587 45.1404 66.2587 37.7643Z" fill="black"/>
<path d="M109.506 13.4618C111.607 15.0809 113.623 16.7746 115.634 18.5054C116.223 19.0059 116.811 19.5057 117.417 20.0216C125.923 27.8878 131.056 38.2401 134.82 49.0382C135.215 50.1342 135.611 51.2294 136.006 52.3246C138.346 58.8449 140.546 65.4119 142.67 72.0062C143.672 75.0796 144.766 78.0855 145.981 81.0809C147.926 85.8963 149.502 90.8145 151.092 95.7576C152.453 99.9334 153.952 104.012 155.602 108.082C156.97 111.531 158.185 115.034 159.402 118.541C159.781 119.616 159.781 119.616 160.167 120.713C160.405 121.396 160.643 122.08 160.888 122.784C161.102 123.398 161.317 124.012 161.537 124.644C162 126.174 162 126.174 162 127.781C151.712 127.781 141.423 127.781 130.823 127.781C130.823 142.099 130.823 156.418 130.823 171.17C108.136 171.17 85.4484 171.17 62.0736 171.17C62.0736 166.662 62.0736 162.155 62.0736 157.51C80.2762 157.51 98.4788 157.51 117.233 157.51C117.233 143.192 117.233 128.874 117.233 114.122C125.675 114.122 134.117 114.122 142.814 114.122C142.072 112 141.33 109.879 140.566 107.694C140.338 107.039 140.109 106.385 139.873 105.71C138.863 102.828 137.835 99.9559 136.759 97.0978C135.495 93.732 134.381 90.3235 133.272 86.9031C132.445 84.4604 131.555 82.0515 130.648 79.6386C129.621 76.8834 128.648 74.1098 127.676 71.3353C127.362 70.4434 127.362 70.4434 127.042 69.5331C125.843 66.1126 124.691 62.6824 123.579 59.233C117.87 42.0896 109.535 28.762 93.1507 20.3132C80.4009 14.1882 64.5318 12.5129 50.8818 16.949C37.3494 22.0994 26.1848 32.0113 19.7048 45.0208C18.0996 48.6815 16.8357 52.4338 15.7077 56.2697C15.5638 56.755 15.42 57.2403 15.2721 57.7401C14.8268 59.875 14.7956 61.8669 14.782 64.0492C14.774 64.9796 14.766 65.9109 14.758 66.8695C14.7532 67.8875 14.7492 68.9047 14.7444 69.9533C14.7365 71.0388 14.7285 72.1235 14.7205 73.2083C14.6989 76.1515 14.6821 79.0947 14.6661 82.0379C14.6485 85.1145 14.6261 88.1911 14.6054 91.2676C14.5654 97.093 14.5294 102.918 14.495 108.743C14.4551 115.374 14.4111 122.006 14.3671 128.638C14.276 142.28 14.1913 155.921 14.1089 169.563C9.62422 169.563 5.13952 169.563 0.518923 169.563C0.407005 155.397 0.322264 141.232 0.270302 127.065C0.24552 120.486 0.212746 113.907 0.156787 107.327C0.108822 101.585 0.078445 95.842 0.0672532 90.0994C0.0616574 87.0654 0.0472678 84.033 0.0120937 80.999C-0.274096 55.4735 4.44323 36.9689 22.2717 18.2579C27.1737 13.5598 32.939 10.3949 38.8907 7.2564C39.507 6.92536 40.1234 6.59351 40.7581 6.25203C62.7091 -4.56867 90.1313 -0.820357 109.506 13.4618Z" fill="black"/>
</svg>
